<?xml version="1.0" encoding="utf-8"?>
<svg xmlns="http://www.w3.org/2000/svg" viewBox="0 0 64 64">
  <g style="display: none" transform="scale(6.4)">
    <path d="M4.95636,0.00019 L4.97382,2.00011 A3,3 0 0,0 2.38893,6.47727 L0.64822,7.46211 A5,5 0 0,1 4.95636,0.00019 Z" fill="#e1e1f4"/>
    <path d="M5.04363,0.00019 L5.02617,2.00011 A3,3 0 0,1 7.61106,6.47727 L9.35177,7.46211 A5,5 0 0,0 5.04363,0.00019 Z" fill="#a7f5a5"/>
    <path d="M0.69185,7.53769 L2.41511,6.52261 A3,3 0 0,0 7.58488,6.52261 L9.30814,7.53769 A5,5 0 0,1 0.69185,7.53769 Z" fill="#f4dddd"/>
  </g>
  <g transform="scale(6.4)">
    <path d="M9.99980,5.04363 L7.99988,5.02617 A3,3 0 0,1 3.52272,7.61106 L2.53788,9.35177 A5,5 0 0,0 9.99980,5.04363 Z" fill="#f4dddd"/>
    <path d="M2.46230,9.30814 L3.47738,7.58488 A3,3 0 0,1 3.47738,2.41511 L2.46230,0.69185 A5,5 0 0,0 2.46230,9.30814 Z" fill="#e1e1f4"/>
    <path d="M9.99980,4.95636 L7.99988,4.97382 A3,3 0 0,0 3.52272,2.38893 L2.53788,0.64822 A5,5 0 0,1 9.99980,4.95636 Z" fill="#a7f5a5"/>
  </g>
</svg>
